HIERARCHY
ROOT root
{
	OFFSET	0	13.1	24.9
	CHANNELS 6  Xposition Yposition Zposition Xrotation Yrotation Zrotation
	JOINT spine_1
	{
		OFFSET	0	9.99999	0
		CHANNELS 3  Xrotation Yrotation Zrotation
		JOINT spine_2
		{
			OFFSET	0	112	-10
			CHANNELS 3  Xrotation Yrotation Zrotation
			JOINT spine_3
			{
				OFFSET	0	206.5	19.3
				CHANNELS 3  Xrotation Yrotation Zrotation
				JOINT spine_4
				{
					OFFSET	0	110.4	14.6
					CHANNELS 3  Xrotation Yrotation Zrotation
					JOINT neck_1
					{
						OFFSET	0	71.8	-50.3
						CHANNELS 3  Xrotation Yrotation Zrotation
						JOINT neck_2
						{
							OFFSET	0	86.2	-25.8
							CHANNELS 3  Xrotation Yrotation Zrotation
							JOINT head_ee
							{
								OFFSET	0	179.8	-8.7
								CHANNELS 3  Xrotation Yrotation Zrotation
								End Site
								{
									OFFSET	1	0	0
								}
							}
						}
					}
					JOINT left_clavicle
					{
						OFFSET	-43.2	22.4	-70.8
						CHANNELS 3  Xrotation Yrotation Zrotation
						JOINT left_shoulder
						{
							OFFSET	-93.9	-5.79999	48.7
							CHANNELS 3  Xrotation Yrotation Zrotation
							JOINT left_elbow
							{
								OFFSET	-291.4	-30.8	15.2
								CHANNELS 3  Xrotation Yrotation Zrotation
								JOINT left_lowarm_twist
								{
									OFFSET	-110.7	-3.89999	13.6
									CHANNELS 3  Xrotation Yrotation Zrotation
									JOINT left_hand
									{
										OFFSET	-110.7	-3.89999	13.6
										CHANNELS 3  Xrotation Yrotation Zrotation
										JOINT left_ee
										{
											OFFSET	-80.8	-5.10001	12.1
											CHANNELS 3  Xrotation Yrotation Zrotation
											End Site
											{
												OFFSET	1	0	0
											}
										}
									}
								}
							}
						}
					}
					JOINT right_clavicle
					{
						OFFSET	43.2	22.4	-70.8
						CHANNELS 3  Xrotation Yrotation Zrotation
						JOINT right_shoulder
						{
							OFFSET	93.9	-5.79999	48.7
							CHANNELS 3  Xrotation Yrotation Zrotation
							JOINT right_elbow
							{
								OFFSET	291.4	-30.8	15.2
								CHANNELS 3  Xrotation Yrotation Zrotation
								JOINT right_lowarm_twist
								{
									OFFSET	110.7	-3.89999	13.6
									CHANNELS 3  Xrotation Yrotation Zrotation
									JOINT right_hand
									{
										OFFSET	110.7	-3.89999	13.6
										CHANNELS 3  Xrotation Yrotation Zrotation
										JOINT right_ee
										{
											OFFSET	80.8	-5.10001	12.1
											CHANNELS 3  Xrotation Yrotation Zrotation
											End Site
											{
												OFFSET	1	0	0
											}
										}
									}
								}
							}
						}
					}
				}
			}
		}
	}
	JOINT left_hip
	{
		OFFSET	-82.8	-127.5	0.300001
		CHANNELS 3  Xrotation Yrotation Zrotation
		JOINT left_knee
		{
			OFFSET	-28.2	-396.7	2.2
			CHANNELS 3  Xrotation Yrotation Zrotation
			JOINT left_ankle
			{
				OFFSET	-11.7	-411.3	35.4
				CHANNELS 3  Xrotation Yrotation Zrotation
				JOINT left_toes
				{
					OFFSET	0	-60	-88.6
					CHANNELS 3  Xrotation Yrotation Zrotation
					JOINT left_foot_ee
					{
						OFFSET	-22.5	-16.5	-42.2
						CHANNELS 3  Xrotation Yrotation Zrotation
						End Site
						{
							OFFSET	1	0	0
						}
					}
				}
			}
		}
	}
	JOINT right_hip
	{
		OFFSET	82.8	-127.5	0.300001
		CHANNELS 3  Xrotation Yrotation Zrotation
		JOINT right_knee
		{
			OFFSET	28.2	-396.7	2.2
			CHANNELS 3  Xrotation Yrotation Zrotation
			JOINT right_ankle
			{
				OFFSET	11.7	-411.3	35.4
				CHANNELS 3  Xrotation Yrotation Zrotation
				JOINT right_toes
				{
					OFFSET	0	-60	-88.6
					CHANNELS 3  Xrotation Yrotation Zrotation
					JOINT right_foot_ee
					{
						OFFSET	22.5	-16.5	-42.2
						CHANNELS 3  Xrotation Yrotation Zrotation
						End Site
						{
							OFFSET	1	0	0
						}
					}
				}
			}
		}
	}
}
MOTION
Frames: 15
Frame Time: 0.02
1464.69 721.385 -1432.22 -13.5442 70.1928 8.06226 2.98896 0.437392 3.69496 2.99653 0.201551 3.71527 3.00727 -0.390628 3.70019 2.98822 0.198234 3.71545 -8.4985 11.2049 -1.9231 -8.56155 22.3076 0.667163 -0.0 0.0 -0.0 -6.24367 12.4051 -9.08687 3.47707 -39.9796 57.5111 0.815903 -22.0072 0.158651 -41.0689 -3.06556 4.13637 1.57797 10.6284 14.6398 -0.0 0.0 -0.0 12.4105 18.1349 -24.9981 -8.15921 3.25668 -69.9034 0.193168 5.46611 -0.00922131 8.60109 -0.2227 1.0751 2.58974 26.0754 -5.69055 0.0 0.0 0.0 8.08827 0.482901 6.56158 -6.72692 0.217946 1.00879 37.7069 15.0641 -4.72229 -34.1446 0.0 0.0 -0.0 0.0 -0.0 24.7357 20.9251 -0.487987 -66.4704 2.93766 -9.1978 39.4674 -12.774 4.85532 10.7228 -0.0 -0.0 0.0 0.0 0.0 
1455.6 719.006 -1428.73 -12.5083 69.5272 6.95609 2.85208 0.463201 3.64085 2.85942 0.230744 3.66291 2.8722 -0.362041 3.65228 2.85366 0.218913 3.66363 -9.06811 11.5326 -0.165858 -9.1751 21.7543 2.58596 -0.0 0.0 -0.0 -6.21904 12.1036 -9.12671 6.04759 -41.3068 56.5582 0.902603 -24.0902 0.192601 -42.4169 -3.21179 4.22879 1.1837 12.2188 12.6223 -0.0 0.0 -0.0 12.1891 17.5875 -24.5183 -9.05949 0.627344 -69.5061 0.157881 4.47209 -0.00616467 8.64613 -0.223439 1.08081 2.44291 26.0879 -4.73698 0.0 0.0 0.0 5.43298 -1.09255 7.27313 -4.13254 0.147953 0.616825 36.4721 12.5253 -4.57423 -33.6973 0.0 0.0 -0.0 0.0 -0.0 29.5584 19.8438 -0.813619 -65.7423 2.8509 -9.12632 37.9928 -11.2298 4.70548 10.5402 -0.0 -0.0 0.0 0.0 0.0 
1445.48 723.172 -1422.77 -11.6339 68.6111 6.04945 2.55028 0.556288 3.62655 2.55754 0.324552 3.65454 2.57695 -0.286797 3.6577 2.55841 0.29407 3.65712 -8.41393 11.8763 -0.0229814 -8.49032 22.2407 2.68107 -0.0 0.0 -0.0 -5.93648 11.6791 -8.74784 7.91496 -42.3368 55.1631 0.978848 -25.8679 0.224802 -44.0257 -3.38911 4.33457 0.0380304 16.561 6.98599 -0.0 0.0 -0.0 11.7697 16.7591 -23.5992 -11.1979 -1.42953 -68.7178 0.173786 4.92049 -0.00746682 8.62338 -0.223067 1.07793 2.21557 25.4102 -3.60077 0.0 0.0 0.0 4.23818 0.0408477 8.26543 -2.09026 0.0804039 0.31069 38.1168 14.1774 -4.74875 -34.2693 0.0 0.0 -0.0 0.0 -0.0 32.6406 20.857 -1.8243 -64.5233 2.7077 -9.00421 36.9764 -16.3681 4.67198 9.7773 -0.0 -0.0 0.0 0.0 0.0 
1435.77 719.138 -1420.72 -10.6347 68.3733 5.04695 2.20646 0.596289 3.54342 2.21337 0.369752 3.57413 2.23592 -0.25013 3.58447 2.21813 0.318738 3.57903 -7.88565 11.9993 -0.0141025 -7.93361 22.4127 2.61399 -0.0 0.0 -0.0 -6.00691 11.7977 -8.83934 10.4026 -43.0833 54.518 1.05486 -27.5885 0.258994 -45.1955 -3.51987 4.40834 -0.840199 19.5776 2.87937 -0.0 0.0 -0.0 11.4127 16.1921 -22.8127 -12.2075 -2.97186 -67.984 0.179348 5.07716 -0.00795142 8.69162 -0.224181 1.08657 2.02712 24.8463 -2.65182 0.0 0.0 0.0 3.09576 0.749491 8.87584 -0.612608 0.0247395 0.0907561 39.4366 15.3636 -4.88726 -34.5994 0.0 0.0 -0.0 0.0 -0.0 35.3476 21.5826 -2.59755 -63.0358 2.53656 -8.85116 36.3637 -20.0549 4.67982 9.24932 -0.0 -0.0 0.0 0.0 0.0 
1424.84 724.998 -1418.69 -12.7036 68.4617 6.93654 2.08719 0.653138 3.55498 2.09412 0.425752 3.58927 2.12055 -0.204736 3.60861 2.10257 0.367368 3.59571 -7.24365 12.1517 -0.133221 -7.25539 22.7156 2.40217 -0.0 0.0 -0.0 -5.10874 11.6737 -7.30919 12.8021 -43.5048 53.5858 1.11002 -28.8043 0.285058 -46.3001 -3.6447 4.47554 -1.73482 22.9897 -0.841138 -0.0 0.0 -0.0 11.2862 15.048 -22.5734 -14.7235 -4.7509 -67.7681 0.172744 4.89114 -0.00737772 8.77389 -0.225511 1.097 1.89659 24.4027 -2.01522 0.0 0.0 0.0 2.06578 2.03399 9.59997 0.273325 -0.0113511 -0.0404078 39.4426 17.4762 -4.92394 -35.1934 0.0 0.0 -0.0 0.0 -0.0 37.4344 22.1507 -3.61215 -61.959 2.41519 -8.73766 35.2559 -22.5336 4.62357 8.4733 -0.0 -0.0 0.0 0.0 0.0 
1412.8 726.232 -1413.89 -11.3723 68.1815 5.43472 1.88624 0.778234 3.50555 1.8929 0.553733 3.54789 1.92747 -0.0833635 3.58983 1.90982 0.484263 3.55803 -6.67734 11.8557 -1.17938 -6.6459 22.8583 1.18117 -0.0 0.0 -0.0 -4.76383 12.3088 -6.56359 14.8715 -43.728 52.8012 1.21586 -31.0593 0.337876 -49.7738 -4.0453 4.67102 -3.32634 29.3431 -6.37426 -0.0 0.0 -0.0 10.8543 14.3217 -21.6267 -15.6944 -7.10911 -67.1375 0.180883 5.12039 -0.00808793 10.0426 -0.244122 1.25798 1.72792 24.4474 -0.899354 0.0 0.0 0.0 1.00018 2.54777 10.1144 -0.856971 0.0343366 0.127029 39.3441 19.3533 -4.95294 -35.9159 0.0 0.0 -0.0 0.0 -0.0 38.5196 21.3474 -3.27146 -57.5505 1.94138 -8.25008 31.2309 -26.9426 4.30045 5.98804 -0.0 -0.0 0.0 0.0 0.0 
1402.09 726.342 -1412.55 -11.7372 68.4438 5.65205 1.70349 0.937593 3.44674 1.70981 0.716506 3.49933 1.75436 0.0749578 3.57106 1.73714 0.637647 3.51454 -6.91379 11.8108 -1.11854 -6.89721 22.7524 1.28067 -0.0 0.0 -0.0 -2.82328 13.6901 -3.01502 18.1632 -43.4125 51.9188 1.33077 -33.3922 0.399168 -52.2143 -4.33344 4.79367 -3.99636 28.9681 -10.2348 -0.0 0.0 -0.0 10.5918 13.0762 -21.0785 -18.1851 -6.8451 -67.0408 0.187505 5.30681 -0.00868967 10.394 -0.248648 1.30265 1.53827 24.2616 0.246236 0.0 0.0 0.0 -0.091052 4.26167 11.0088 -0.686506 0.0276582 0.101721 41.7023 19.9643 -5.182 -36.6971 0.0 0.0 -0.0 0.0 -0.0 37.3012 21.9542 -2.70096 -42.9077 0.662037 -6.40046 28.0854 -26.5185 3.91914 3.09921 -0.0 -0.0 0.0 0.0 0.0 
1381.91 728.257 -1412.02 -11.6835 69.0322 5.33674 1.59583 0.915557 3.53928 1.60253 0.688637 3.59028 1.64668 0.0242309 3.65556 1.62854 0.600874 3.60598 -6.84638 11.705 -1.45101 -6.82131 22.7881 0.912031 -0.0 0.0 -0.0 -1.2669 13.6745 -0.460567 20.0196 -44.0552 51.1126 1.35281 -33.826 0.411368 -55.1043 -4.68095 4.92288 -4.89196 29.4005 -14.8863 -0.0 0.0 -0.0 10.2902 10.698 -20.4609 -20.658 -7.73613 -66.7824 0.202145 5.7185 -0.0100961 10.564 -0.250738 1.32426 1.38085 23.2354 0.803115 0.0 0.0 0.0 -0.7464 3.4525 11.7484 -2.27077 0.0868141 0.337652 41.8544 20.2713 -5.20308 -36.3564 0.0 0.0 -0.0 0.0 -0.0 37.8045 21.8885 -3.319 -35.5777 0.209652 -5.36932 25.9753 -27.5694 3.68684 1.75382 -0.0 -0.0 0.0 0.0 0.0 
1371.4 732.665 -1410.16 -12.3808 69.5516 6.00266 1.45291 0.931457 3.47311 1.45934 0.708708 3.52525 1.50422 0.0468882 3.59539 1.48671 0.613763 3.54299 -6.63405 11.5574 -1.66542 -6.59338 22.6504 0.623593 -0.0 0.0 -0.0 0.361452 15.4119 2.38708 21.6823 -44.0356 50.3069 1.46645 -35.9937 0.476413 -57.467 -4.96952 5.01536 -5.68394 29.298 -19.4557 -0.0 0.0 -0.0 10.1898 9.64043 -20.2529 -21.9577 -8.35175 -66.6611 0.212794 6.01758 -0.0111848 10.7562 -0.253024 1.3487 1.24726 22.4811 1.33658 0.0 0.0 0.0 -1.19222 2.60096 12.1198 -2.69856 0.101665 0.401624 41.7187 20.9323 -5.2079 -37.0803 0.0 0.0 -0.0 0.0 -0.0 37.3329 22.0325 -3.0009 -29.2143 -0.073356 -4.43443 23.877 -27.7396 3.42548 0.366621 -0.0 -0.0 0.0 0.0 0.0 
1357.78 732.199 -1408.65 -14.1851 69.6514 7.57697 1.53306 0.946854 3.54553 1.53977 0.719474 3.5985 1.58612 0.0492367 3.6693 1.56788 0.627732 3.61561 -6.60033 11.5434 -2.0425 -6.55054 22.8936 0.234529 -0.0 0.0 -0.0 1.84724 16.7648 4.84167 23.0899 -44.0857 49.5764 1.51288 -36.8467 0.503977 -59.105 -5.17166 5.07245 -6.23312 29.3232 -22.6504 -0.0 0.0 -0.0 9.98142 8.6096 -19.8052 -23.4028 -8.85858 -66.7068 0.222445 6.28836 -0.0122192 10.946 -0.255201 1.37285 1.14564 21.9972 1.78664 0.0 0.0 0.0 -1.34817 2.85394 12.5004 -2.78699 0.104676 0.414862 41.8011 21.4879 -5.2301 -37.5254 0.0 0.0 -0.0 0.0 -0.0 37.3253 22.3096 -2.34153 -23.2144 -0.243637 -3.52979 23.1548 -27.7433 3.33254 -0.348348 0.0 0.0 0.0 0.0 0.0 
1345.94 730.695 -1410.33 -14.3845 70.015 7.87548 1.20866 0.800649 3.50855 1.21532 0.575913 3.55231 1.25266 -0.1047 3.59711 1.23491 0.464341 3.56859 -6.31796 10.9935 -3.21408 -6.2257 22.7021 -1.11612 -0.0 0.0 -0.0 2.59066 17.8804 6.05215 23.8482 -43.4439 48.7101 1.68019 -39.7678 0.607723 -60.9689 -5.40349 5.13032 -6.58621 28.96 -25.1025 -0.0 0.0 -0.0 9.8692 7.69781 -19.5641 -24.2229 -8.89568 -66.2346 0.203723 5.76283 -0.010254 11.5975 -0.262065 1.45578 0.837455 18.7231 2.37858 0.0 0.0 0.0 -2.20022 2.09913 12.8038 -2.63174 0.099377 0.391625 40.2802 22.0347 -5.10592 -38.032 0.0 0.0 -0.0 0.0 -0.0 33.9993 23.5284 -0.0455588 -5.91381 -0.197922 -0.885613 20.4932 -26.8486 2.96584 -6.12715 0.0 0.0 0.0 0.0 0.0 
1327.43 724.625 -1413.32 -14.0443 70.8192 7.02847 1.1919 0.682691 3.73835 1.19956 0.4436 3.77415 1.23046 -0.278301 3.7899 1.21056 0.323295 3.78633 -6.21281 10.8766 -3.31628 -6.11225 22.5541 -1.26417 -0.0 0.0 -0.0 2.80235 18.2446 6.39076 24.9182 -43.4651 48.9556 1.81481 -41.9517 0.695813 -61.6519 -5.48888 5.14963 -6.38638 26.8843 -25.7246 -0.0 0.0 -0.0 9.61636 6.1934 -19.016 -25.0362 -9.34088 -66.2585 0.209741 5.93186 -0.010867 12.103 -0.26674 1.52018 0.526027 14.9555 2.82618 0.0 0.0 0.0 -2.89418 -0.667531 12.9989 -3.67507 0.133772 0.548049 41.5927 20.5626 -5.18711 -38.4397 0.0 0.0 -0.0 0.0 -0.0 31.7658 24.4029 0.337971 4.98903 0.237359 0.72839 15.423 -25.0591 2.25266 -10.9931 0.0 0.0 0.0 0.0 0.0 
1309.98 720.842 -1410.77 -13.8156 71.8341 6.47033 0.891634 0.372562 3.8698 0.899955 0.125751 3.88564 0.910495 -0.633705 3.83575 0.889969 -0.0204433 3.88761 -4.98578 9.91285 -4.69983 -4.7772 21.7411 -3.10469 -0.0 0.0 -0.0 3.10946 18.6967 6.87264 25.0694 -43.134 48.3239 1.94988 -44.0019 0.787903 -62.348 -5.57613 5.16826 -6.77333 27.8442 -27.3013 -0.0 0.0 -0.0 9.73636 6.2711 -19.2733 -25.8635 -9.49429 -66.2227 0.235527 6.65494 -0.0136937 12.121 -0.266896 1.52247 0.341031 12.7639 3.12968 0.0 0.0 0.0 -6.58593 0.267631 14.3718 1.72281 -0.0747684 -0.253782 42.058 21.1092 -5.24281 -38.7869 0.0 0.0 -0.0 0.0 -0.0 31.3937 24.8386 0.989168 7.17872 0.361433 1.04116 12.3651 -26.6493 1.84208 -13.1913 0.0 0.0 0.0 0.0 0.0 
1291.45 716.577 -1415.23 -14.8273 71.8771 7.31783 0.89394 0.258702 4.01965 0.902927 0.00260913 4.02795 0.905074 -0.78295 3.95124 0.883324 -0.149627 4.02517 -1.9679 9.28071 -6.14386 -1.52793 21.6045 -5.3291 -0.0 0.0 -0.0 2.97035 18.7796 6.66449 25.8977 -43.2421 48.9495 2.03021 -45.1578 0.844293 -63.1038 -5.67108 5.18727 -7.01854 27.8973 -28.8234 -0.0 0.0 -0.0 9.84892 5.84091 -19.5105 -25.8934 -10.0129 -66.4002 0.207372 5.86533 -0.0106236 12.5797 -0.270629 1.58094 0.0358516 8.77039 3.48427 0.0 0.0 0.0 -7.86652 -0.972507 14.5305 2.67787 -0.119501 -0.393488 41.7893 20.8314 -5.21158 -39.2771 0.0 0.0 -0.0 0.0 -0.0 31.8246 25.9709 0.668395 6.01232 0.293849 0.87513 12.6885 -26.2107 1.88334 -14.6431 0.0 0.0 0.0 0.0 0.0 
1271.45 710.113 -1420.77 -13.0851 72.3847 5.45469 0.829704 0.0513918 4.13595 0.839193 -0.211665 4.13086 0.825804 -1.01931 4.00891 0.803578 -0.373949 4.11936 -1.30163 8.87808 -6.81549 -0.795336 21.3952 -6.23606 -0.0 0.0 -0.0 2.60797 18.5524 6.10739 25.7444 -42.84 48.8396 2.06586 -45.6563 0.86968 -63.9305 -5.77522 5.20663 -7.04104 27.3926 -29.4619 -0.0 0.0 -0.0 9.77705 5.3923 -19.3517 -26.2523 -10.3246 -66.4516 0.195083 5.51997 -0.00940457 12.8402 -0.27254 1.61416 -0.275345 4.36628 3.70574 0.0 0.0 0.0 -9.45843 -1.73946 14.486 0.725552 -0.0305562 -0.107146 43.0138 20.4252 -5.30845 -38.4598 0.0 0.0 -0.0 0.0 -0.0 32.7664 27.3071 -0.0320665 3.0336 0.136759 0.445334 11.8281 -25.2463 1.75109 -15.5396 0.0 0.0 0.0 0.0 0.0 
